<svg width="29" height="28" viewBox="0 0 29 28" fill="none" xmlns="http://www.w3.org/2000/svg">
<path d="M5.63516 19.4908V19.4906C5.63529 19.3934 5.65612 19.2972 5.69628 19.2087C5.73628 19.1204 5.79456 19.0417 5.86724 18.9776C6.38936 18.5037 6.84602 17.9623 7.22515 17.3678C7.64409 16.5469 7.89551 15.6508 7.96476 14.7317L7.96476 11.9702C7.96476 11.9702 7.96476 11.9702 7.96476 11.9701V11.97H8.08976C8.08681 10.5059 8.61453 9.09044 9.57518 7.98564C10.5358 6.88084 11.8643 6.16162 13.3146 5.96118L5.63516 19.4908ZM5.63516 19.4908V20.2524C5.63516 20.4341 5.70733 20.6083 5.83579 20.7367C5.96426 20.8652 6.13849 20.9374 6.32016 20.9374H21.8882C22.0698 20.9374 22.2441 20.8652 22.3725 20.7367C22.501 20.6083 22.5732 20.4341 22.5732 20.2524V19.4908V19.4906C22.573 19.3934 22.5522 19.2972 22.512 19.2087C22.472 19.1202 22.4136 19.0414 22.3407 18.9772C21.8107 18.5048 21.3466 17.9633 20.9606 17.3674C20.5417 16.5466 20.2904 15.6506 20.2212 14.7317M5.63516 19.4908L20.2212 14.7317M20.2212 11.9703C20.2212 11.9702 20.2212 11.9701 20.2212 11.97C20.2249 10.4644 19.6787 9.00922 18.6852 7.87788C17.7159 6.77409 16.386 6.05267 14.9348 5.84092V5.22758C14.9348 4.99615 14.8428 4.7742 14.6792 4.61056C14.5155 4.44691 14.2936 4.35498 14.0622 4.35498C13.8307 4.35498 13.6088 4.44691 13.4451 4.61056C13.2815 4.7742 13.1896 4.99615 13.1896 5.22758V5.85324L20.0962 11.97L20.2212 11.9703ZM20.2212 11.9703L20.2212 14.7317M20.2212 11.9703L20.2212 14.7317M19.8168 18.0791C20.1547 18.6144 20.5468 19.1131 20.9869 19.5674H7.22702C7.6671 19.1131 8.05924 18.6144 8.39707 18.0791L8.39735 18.0793L8.40165 18.0712C8.9503 17.0426 9.27042 15.9076 9.34014 14.7439L9.34036 14.7439V14.7364V11.97H9.34043L9.34029 11.9658C9.31865 11.3262 9.42592 10.6889 9.65573 10.0916C9.88553 9.49443 10.2332 8.94956 10.6779 8.48949C11.1227 8.02942 11.6555 7.66356 12.2446 7.41369C12.8337 7.16382 13.4671 7.03505 14.107 7.03505C14.7469 7.03505 15.3802 7.16382 15.9693 7.41369C16.5584 7.66356 17.0912 8.02942 17.536 8.48949C17.9808 8.94956 18.3284 9.49443 18.5582 10.0916C18.788 10.6889 18.8953 11.3262 18.8736 11.9658L18.8736 11.9657V11.97V14.7364H18.8733L18.8738 14.7439C18.9435 15.9076 19.2636 17.0426 19.8123 18.0712L19.812 18.0714L19.8168 18.0791Z" fill="#EFF2F8" stroke="#EFF2F8" stroke-width="0.25"/>
<path d="M15.7006 21.4242L15.7217 21.281H15.5769H12.6313H12.4866L12.5077 21.4243C12.565 21.8128 12.7615 22.1673 13.0607 22.4218C13.3598 22.6763 13.7412 22.8135 14.134 22.8078L14.1321 22.6828L14.135 22.8078C14.5173 22.799 14.8841 22.6553 15.1706 22.4021C15.4571 22.1489 15.6449 21.8025 15.7006 21.4242Z" fill="#EFF2F8" stroke="#EFF2F8" stroke-width="0.25"/>
</svg>
