<svg width="16" height="13" viewBox="0 0 16 13" fill="none" xmlns="http://www.w3.org/2000/svg">
<path d="M7.41315 4.11573L9.56842 6.271L9.57868 6.1581C9.57868 5.02572 8.65843 4.10547 7.52605 4.10547L7.41315 4.11573Z" fill="#141623"/>
<path d="M7.52548 2.73649C9.4139 2.73649 10.9465 4.26913 10.9465 6.15755C10.9465 6.59887 10.8576 7.01966 10.7037 7.40623L12.705 9.40755C13.7381 8.54544 14.5524 7.43019 15.0552 6.15755C13.8682 3.15388 10.95 1.02597 7.52551 1.02597C6.56761 1.02597 5.65079 1.19701 4.79894 1.50491L6.27684 2.97937C6.66338 2.82886 7.08417 2.73649 7.52548 2.73649Z" fill="#141623"/>
<path d="M0.6842 0.872369L2.2442 2.43237L2.55553 2.7437C1.42658 3.62633 0.533685 4.79976 0 6.1579C1.1837 9.16158 4.10527 11.2895 7.52633 11.2895C8.58687 11.2895 9.59949 11.0842 10.5266 10.7113L10.8174 11.0021L12.8119 13L13.6843 12.1311L1.55657 0L0.6842 0.872369ZM4.46791 4.65265L5.52502 5.70975C5.49423 5.85687 5.4737 6.00395 5.4737 6.1579C5.4737 7.29028 6.39395 8.21053 7.52633 8.21053C7.68028 8.21053 7.8274 8.19001 7.97108 8.15922L9.02819 9.21632C8.57318 9.44211 8.06688 9.57897 7.52633 9.57897C5.63791 9.57897 4.10527 8.04632 4.10527 6.1579C4.10527 5.61738 4.24212 5.11106 4.46791 4.65265Z" fill="#141623"/>
</svg>
